<?xml version="1.0" encoding="UTF-8" standalone="no"?>
<svg
   xmlns:dc="http://purl.org/dc/elements/1.1/"
   xmlns:cc="http://creativecommons.org/ns#"
   xmlns:rdf="http://www.w3.org/1999/02/22-rdf-syntax-ns#"
   xmlns:svg="http://www.w3.org/2000/svg"
   xmlns="http://www.w3.org/2000/svg"
   xmlns:sodipodi="http://sodipodi.sourceforge.net/DTD/sodipodi-0.dtd"
   xmlns:inkscape="http://www.inkscape.org/namespaces/inkscape"
   width="210mm"
   height="297mm"
   viewBox="0 0 210 297"
   version="1.1"
   id="svg8"
   sodipodi:docname="Dockit.svg"
   inkscape:version="1.0.2-2 (e86c870879, 2021-01-15)"
   inkscape:export-filename="D:\Projects\Dockit\Images\Dockit.1950.png"
   inkscape:export-xdpi="255.74001"
   inkscape:export-ydpi="255.74001">
  <defs
     id="defs2" />
  <sodipodi:namedview
     id="base"
     pagecolor="#ffffff"
     bordercolor="#666666"
     borderopacity="1.0"
     inkscape:pageopacity="0.0"
     inkscape:pageshadow="2"
     inkscape:zoom="1.4"
     inkscape:cx="393.29174"
     inkscape:cy="425.9574"
     inkscape:document-units="mm"
     inkscape:current-layer="layer1"
     inkscape:document-rotation="0"
     showgrid="false"
     inkscape:window-width="2995"
     inkscape:window-height="1662"
     inkscape:window-x="3683"
     inkscape:window-y="154"
     inkscape:window-maximized="0" />
  <metadata
     id="metadata5">
    <rdf:RDF>
      <cc:Work
         rdf:about="">
        <dc:format>image/svg+xml</dc:format>
        <dc:type
           rdf:resource="http://purl.org/dc/dcmitype/StillImage" />
        <dc:title></dc:title>
      </cc:Work>
    </rdf:RDF>
  </metadata>
  <g
     inkscape:label="Layer 1"
     inkscape:groupmode="layer"
     id="layer1">
    <g
       id="g1106">
      <g
         id="Layer_2"
         transform="matrix(0.38362788,0,0,0.38362788,7.5906969,17.451939)"
         style="fill:#800000">
	<path
   fill="#ff473e"
   d="M 473,108.645 H 291.537 c -16.914,0 -31.096,11.667 -34.956,27.391 -3.86,-15.724 -18.042,-27.391 -34.956,-27.391 H 40.162 c -19.882,0 -36,16.118 -36,36 v 264.657 c 0,19.882 16.118,36 36,36 h 181.463 c 0.201,0 0.398,-0.012 0.598,-0.015 8.445,9.075 20.655,14.78 34.237,14.78 13.586,0 25.798,-5.707 34.243,-14.785 0.278,0.006 0.554,0.021 0.834,0.021 H 473 c 19.882,0 36,-16.118 36,-36 V 144.645 c 0,-19.882 -16.118,-36 -36,-36 z"
   id="path33"
   style="fill:#800000" />

</g>
      <g
         id="Layer_3"
         transform="matrix(0.38362788,0,0,0.38362788,7.5906969,17.451939)">
	<path
   fill="#445056"
   d="m 260.57,378.332 c 0,0 0.256,0.576 0.703,1.585 0.464,1.009 1.126,2.45 1.921,4.179 0.829,1.729 1.796,3.747 2.831,5.908 1.028,2.161 2.22,4.467 3.362,6.773 0.577,1.153 1.154,2.306 1.721,3.44 0.546,1.135 1.181,2.252 1.861,3.332 0.718,1.081 1.412,2.125 2.071,3.116 0.615,0.991 1.141,1.927 1.507,2.792 0.379,0.865 0.644,1.657 0.765,2.36 0.126,0.703 0.133,1.315 0.073,1.819 -0.115,1.009 -0.502,1.585 -0.502,1.585 -7.578,11.279 -22.864,14.279 -34.142,6.702 -2.708,-1.82 -4.98,-4.155 -6.702,-6.702 0,0 -0.387,-0.576 -0.502,-1.585 -0.06,-0.504 -0.053,-1.117 0.073,-1.819 0.121,-0.702 0.386,-1.495 0.765,-2.36 0.366,-0.865 0.891,-1.801 1.507,-2.792 0.658,-0.991 1.352,-2.035 2.07,-3.116 0.68,-1.081 1.315,-2.197 1.861,-3.332 0.568,-1.135 1.145,-2.288 1.721,-3.44 1.142,-2.306 2.334,-4.611 3.362,-6.773 1.036,-2.161 2.003,-4.179 2.832,-5.908 0.795,-1.729 1.457,-3.17 1.921,-4.179 0.447,-1.009 0.703,-1.585 0.703,-1.585 1.006,-2.27 3.662,-3.294 5.932,-2.287 1.058,0.47 1.849,1.306 2.286,2.287 z"
   id="path36" />

</g>
      <g
         id="Layer_4"
         transform="matrix(0.38362788,0,0,0.38362788,7.5906969,17.451939)"
         style="fill:#b3b3b3">
	<path
   fill="#a9b8c2"
   d="M 455.552,86.818 H 291.609 c -17.026,0 -31.281,11.823 -35.028,27.704 C 252.833,98.641 238.578,86.818 221.553,86.818 H 57.609 c -19.882,0 -36,16.118 -36,36 v 261.706 c 0,19.882 16.118,36 36,36 h 163.943 c 17.026,0 31.281,-11.823 35.028,-27.704 3.748,15.881 18.003,27.704 35.028,27.704 h 163.943 c 19.882,0 36,-16.118 36,-36 V 122.818 c 0.001,-19.883 -16.116,-36 -35.999,-36 z"
   id="path39"
   style="fill:#b3b3b3" />

</g>
      <g
         id="Layer_5"
         transform="matrix(0.38362788,0,0,0.38362788,7.5906969,17.451939)"
         style="fill:#e6e6e6">
	<path
   fill="#dce2e2"
   d="M 249.022,61.603 C 184.386,22.842 123.177,115.736 58.54,76.975 52.616,73.39 47.813,75.648 47.813,83.689 V 377.62 c 0,6.856 3.72,12.949 8.799,13.669 0.625,0.089 1.27,0.316 1.928,0.714 64.636,38.761 129.272,-54.133 193.908,-15.372 1.008,0.61 2.475,1.705 3.65,2.582 2.454,1.831 7.077,-1.824 7.077,-7.333 L 255.54,82.212 c 0,-7.865 -0.594,-17.023 -6.518,-20.609 z"
   id="path42"
   style="fill:#e6e6e6" />

</g>
      <g
         id="Layer_6"
         transform="matrix(0.38362788,0,0,0.38362788,7.5906969,17.451939)">
	<path
   fill="#f9f9f7"
   d="m 265.336,61.603 c 64.636,-38.761 129.272,54.133 193.908,15.372 5.924,-3.585 10.727,-1.327 10.727,6.714 V 372.98 c 0,8.579 -4.223,15.849 -10.236,18.756 -0.163,0.079 -0.326,0.168 -0.491,0.267 -64.636,38.761 -129.299,-54.213 -193.908,-15.372 -7.82,4.701 -10.727,3.415 -10.727,-0.994 0,-57.427 0,-215.999 0,-299.812 0,-7.865 4.803,-10.636 10.727,-14.222 z"
   id="path45" />

</g>
      <g
         id="g245"
         transform="translate(174.81399,-13.985119)">
        <g
           id="g228">
          <g
             id="Layer_3-2"
             transform="matrix(0.24723433,0,0,0.24723433,-159.9713,47.918303)">
	<path
   fill="#96a9b2"
   d="M 334.064,148.423 H 78.16 c -7.456,0 -13.5,-6.044 -13.5,-13.5 0,-7.456 6.044,-13.5 13.5,-13.5 h 255.904 c 7.456,0 13.5,6.044 13.5,13.5 0,7.456 -6.043,13.5 -13.5,13.5 z m 13.5,47.77 c 0,-7.456 -6.044,-13.5 -13.5,-13.5 H 78.16 c -7.456,0 -13.5,6.044 -13.5,13.5 0,7.456 6.044,13.5 13.5,13.5 h 255.904 c 7.457,0 13.5,-6.044 13.5,-13.5 z m -172.811,61.271 c 0,-7.456 -6.044,-13.5 -13.5,-13.5 H 78.16 c -7.456,0 -13.5,6.044 -13.5,13.5 0,7.456 6.044,13.5 13.5,13.5 h 83.093 c 7.456,0 13.5,-6.044 13.5,-13.5 z m 172.811,61.27 c 0,-7.456 -6.044,-13.5 -13.5,-13.5 H 78.16 c -7.456,0 -13.5,6.044 -13.5,13.5 0,7.456 6.044,13.5 13.5,13.5 h 255.904 c 7.457,0 13.5,-6.044 13.5,-13.5 z M 174.753,437.433 c 0,-7.456 -6.044,-13.5 -13.5,-13.5 H 78.16 c -7.456,0 -13.5,6.044 -13.5,13.5 0,7.456 6.044,13.5 13.5,13.5 h 83.093 c 7.456,0 13.5,-6.044 13.5,-13.5 z"
   id="path106" />

</g>
          <g
             id="Layer_4-2"
             transform="matrix(0.24723433,0,0,0.24723433,-159.9713,47.918303)">
	<path
   fill="#ff6e83"
   d="m 471.445,140.519 c -19.599,-19.599 -41.958,-29.015 -49.94,-21.032 l -53.979,53.979 70.973,70.973 53.979,-53.979 v 0 0 c 7.983,-7.983 -1.434,-30.342 -21.033,-49.941 z"
   id="path109" />

</g>
          <g
             id="Layer_5-9"
             transform="matrix(0.24723433,0,0,0.24723433,-159.9713,47.918303)">
	<path
   fill="#bfbcaf"
   d="M 437.229,174.736 C 414.868,152.375 389.358,141.632 380.251,150.74 l -55.276,55.276 80.975,80.975 55.276,-55.276 c 9.107,-9.108 -1.637,-34.619 -23.997,-56.979 z"
   id="path112" />

</g>
          <g
             id="Layer_6-1"
             transform="matrix(0.24723433,0,0,0.24723433,-159.9713,47.918303)">
	<path
   fill="#2b2622"
   d="m 224.07,424.611 -48.686,21.176 c -3.543,1.541 -7.665,-0.082 -9.206,-3.625 -0.802,-1.844 -0.737,-3.868 0,-5.581 l 21.176,-48.686 c 6.146,-14.131 22.585,-20.604 36.716,-14.458 14.131,6.146 20.604,22.585 14.458,36.716 -2.924,6.722 -8.233,11.736 -14.458,14.458 z"
   id="path115" />

</g>
          <g
             id="Layer_7"
             transform="matrix(0.24723433,0,0,0.24723433,-159.9713,47.918303)">
	<path
   fill="#ffd469"
   d="m 429.288,263.482 c 0.051,-0.074 0.104,-0.147 0.152,-0.222 7.023,-10.063 -3.722,-34.289 -25.084,-55.651 -21.362,-21.362 -45.587,-32.107 -55.65,-25.085 -0.076,0.049 -0.149,0.101 -0.223,0.153 -0.091,0.067 -0.184,0.13 -0.272,0.2 -0.248,0.191 -0.49,0.393 -0.718,0.62 l -128.46,128.46 c 0,0 -36.341,89.931 -22.648,103.623 13.692,13.692 103.623,-22.648 103.623,-22.648 l 128.46,-128.46 c 0.227,-0.227 0.43,-0.469 0.62,-0.718 0.069,-0.087 0.133,-0.181 0.2,-0.272 z"
   id="path118" />

</g>
          <g
             id="Layer_8"
             transform="matrix(0.24723433,0,0,0.24723433,-159.9713,47.918303)">
	<path
   fill="#e5aa6e"
   d="m 219.031,311.959 -2.853,17.779 c -0.42,2.615 1.845,4.873 4.458,4.446 l 12.741,-2.081 c 2.516,-0.411 4.739,1.675 4.489,4.212 l -1.419,14.382 c -0.249,2.525 1.951,4.606 4.458,4.217 l 12.877,-1.997 c 2.633,-0.408 4.885,1.896 4.416,4.519 l -2.203,12.32 c -0.454,2.537 1.646,4.804 4.211,4.545 l 14.493,-1.462 c 2.445,-0.247 4.501,1.812 4.251,4.257 l -1.494,14.621 c -0.257,2.516 1.922,4.602 4.424,4.235 l 18.443,-2.702 -103.939,43.491 c 8.292,-8.292 -13.178,-29.761 -21.47,-21.47 z"
   id="path121" />

</g>
          <g
             id="Layer_9"
             transform="matrix(0.24723433,0,0,0.24723433,-159.9713,47.918303)">
	<path
   fill="#ffb636"
   d="m 245.704,316.656 c -1.239,0 -2.478,-0.473 -3.423,-1.418 -1.89,-1.891 -1.89,-4.955 0,-6.846 L 349.466,201.206 c 1.891,-1.888 4.955,-1.89 6.846,0 1.89,1.891 1.89,4.955 0,6.846 L 249.126,315.238 c -0.945,0.946 -2.184,1.418 -3.422,1.418 z m 30.804,25.964 107.186,-107.186 c 1.89,-1.891 1.89,-4.955 0,-6.846 -1.891,-1.89 -4.955,-1.89 -6.846,0 L 269.662,335.774 c -1.89,1.891 -1.89,4.955 0,6.846 0.945,0.945 2.185,1.418 3.423,1.418 1.238,0 2.477,-0.473 3.423,-1.418 z m 27.381,27.381 107.186,-107.186 c 1.89,-1.891 1.89,-4.955 0,-6.846 -1.891,-1.89 -4.955,-1.89 -6.846,0 L 297.043,363.155 c -1.89,1.891 -1.89,4.955 0,6.846 0.945,0.945 2.185,1.418 3.423,1.418 1.238,0 2.477,-0.473 3.423,-1.418 z"
   id="path124" />

</g>
        </g>
      </g>
    </g>
  </g>
</svg>
